<svg height="230pt" preserveAspectRatio="xMidYMid meet" viewBox="0 0 230 230" width="230pt" xmlns="http://www.w3.org/2000/svg"><g transform="matrix(.1 0 0 -.1 0 230)"><path d="m730 1530v-250h70 70v250 250h-70-70z"/><path d="m960 1720v-60h70 70v60 60h-70-70z"/><path d="m1190 1530v-250h144c141 0 145 1 176 26 42 36 60 74 60 129s-18 93-60 129c-28 23-40 26-106 26h-74v95 95h-70-70zm214-63c25-18 17-50-15-61-41-14-59-2-59 39 0 32 3 35 28 35 16 0 36-6 46-13z"/><path d="m960 1435v-155h70 70v155 155h-70-70z"/><path d="m160 1074c-54-46-60-69-60-224s6-178 60-224l32-26h223 223l32 26c42 36 60 74 60 129s-18 93-60 129c-30 25-37 26-151 26h-119v-55-55h71c78 0 109-11 109-40 0-32-33-40-169-40-169 0-171 2-171 130 0 135-11 130 254 123l216-6v66 67h-259-259z"/><path d="m800 1035v-65h240 240l6-25c8-33 1-201-9-212-5-4-82-9-173-11l-164-3v95 96h-70-70v-155-155h269 269l32 26c54 46 60 69 60 224s-6 178-60 224l-32 26h-269-269z"/><path d="m1550 975 125-125-125-125-125-125h105 105l90 90 90 90 90-90 90-90h105 105l-125 125-125 125 125 125 125 125h-105-105l-90-90-90-90-90 90-90 90h-105-105z"/></g></svg>