<?xml version="1.0" standalone="no"?>
<!DOCTYPE svg PUBLIC "-//W3C//DTD SVG 20010904//EN"
 "http://www.w3.org/TR/2001/REC-SVG-20010904/DTD/svg10.dtd">
<svg version="1.0" xmlns="http://www.w3.org/2000/svg"
 width="230.000000pt" height="230.000000pt" viewBox="0 0 230.000000 230.000000"
 preserveAspectRatio="xMidYMid meet">
<metadata>
Created by potrace 1.11, written by Peter Selinger 2001-2013
</metadata>
<g transform="translate(0.000000,230.000000) scale(0.100000,-0.100000)"
fill="#000000" stroke="none">
<path d="M730 1530 l0 -250 70 0 70 0 0 250 0 250 -70 0 -70 0 0 -250z"/>
<path d="M960 1720 l0 -60 70 0 70 0 0 60 0 60 -70 0 -70 0 0 -60z"/>
<path d="M1190 1530 l0 -250 144 0 c141 0 145 1 176 26 42 36 60 74 60 129 0
55 -18 93 -60 129 -28 23 -40 26 -106 26 l-74 0 0 95 0 95 -70 0 -70 0 0 -250z
m214 -63 c25 -18 17 -50 -15 -61 -41 -14 -59 -2 -59 39 0 32 3 35 28 35 16 0
36 -6 46 -13z"/>
<path d="M960 1435 l0 -155 70 0 70 0 0 155 0 155 -70 0 -70 0 0 -155z"/>
<path d="M160 1074 c-54 -46 -60 -69 -60 -224 0 -155 6 -178 60 -224 l32 -26
223 0 223 0 32 26 c42 36 60 74 60 129 0 55 -18 93 -60 129 -30 25 -37 26
-151 26 l-119 0 0 -55 0 -55 71 0 c78 0 109 -11 109 -40 0 -32 -33 -40 -169
-40 -169 0 -171 2 -171 130 0 135 -11 130 254 123 l216 -6 0 66 0 67 -259 0
-259 0 -32 -26z"/>
<path d="M800 1035 l0 -65 240 0 240 0 6 -25 c8 -33 1 -201 -9 -212 -5 -4 -82
-9 -173 -11 l-164 -3 0 95 0 96 -70 0 -70 0 0 -155 0 -155 269 0 269 0 32 26
c54 46 60 69 60 224 0 155 -6 178 -60 224 l-32 26 -269 0 -269 0 0 -65z"/>
<path d="M1550 975 l125 -125 -125 -125 -125 -125 105 0 105 0 90 90 90 90 90
-90 90 -90 105 0 105 0 -125 125 -125 125 125 125 125 125 -105 0 -105 0 -90
-90 -90 -90 -90 90 -90 90 -105 0 -105 0 125 -125z"/>
</g>
</svg>
